<?xml version="1.0" encoding="UTF-8"?>
<!-- Generated by Pixelmator Pro 3.8 -->
<svg width="3300" height="2200" viewBox="0 0 3300 2200" xmlns="http://www.w3.org/2000/svg">
    <path id="Path" fill="none" stroke="#000000" stroke-width="0.548613" d="M 1469.559692 2076.280029 C 1559.881836 2104.353271 1655.086304 2119 1751.511353 2119 C 2295.888672 2119 2737.735107 1678.374268 2737.735107 1134 C 2737.735107 1037.574951 2723.085205 944.811646 2696.232666 856.930664 L 2181.1521 1038.795532 C 2188.475342 1069.309814 2192.137207 1101.044556 2192.137207 1134 C 2192.137207 1378.114014 1995.628418 1573.405273 1752.734985 1574.625732 C 1717.335449 1574.625732 1684.380005 1570.964111 1651.424683 1563.640625 Z M 2666.938965 771.490723 C 2638.865723 701.918213 2605.9104 637.228027 2563.19043 573.758423 L 2128.66748 910.635742 C 2138.435059 925.282471 2145.755371 939.929321 2151.861328 955.796753 Z M 2508.267822 504.185913 C 2404.516357 379.687744 2276.356445 285.703857 2126.229492 223.454712 L 1941.920288 740.97644 C 1991.966675 764.167236 2037.124756 798.343262 2074.962402 838.62207 Z M 2040.786499 194.161133 C 1949.243652 164.867432 1851.598145 149 1751.511353 149 C 1208.357666 149 766.511353 589.625732 766.511353 1134 C 766.511353 1235.307373 782.378784 1335.394043 812.893005 1428.157349 L 1327.976563 1245.071899 C 1318.208984 1209.675293 1313.326782 1173.058228 1313.326782 1134 C 1313.326782 894.768311 1512.279663 698.25647 1753.952515 698.25647 C 1789.348999 698.25647 1824.745605 701.918213 1857.703979 710.462158 Z M 843.407288 1512.376709 C 871.483459 1579.508057 908.097473 1642.977783 949.599915 1704.006226 L 1381.678711 1370.790527 C 1374.355225 1358.584961 1367.034912 1343.937988 1359.708374 1329.29126 Z M 1004.522522 1776.019775 C 1108.270996 1894.415161 1238.871948 1990.840088 1385.340332 2046.986328 L 1565.987793 1534.346924 C 1518.385498 1511.156128 1474.442017 1480.641846 1439.04541 1441.583618 Z M 1751.511353 1464.774414 C 1934.599976 1464.774414 2082.288818 1317.085449 2082.288818 1134 C 2082.288818 950.914551 1934.599976 803.225586 1751.511353 803.225586 C 1569.646484 803.225586 1420.736938 950.914551 1420.736938 1134 C 1420.736938 1317.085449 1569.646484 1464.774414 1751.511353 1464.774414 Z M 1751.511353 1368.349365 C 1622.134033 1368.349365 1517.161865 1264.601074 1517.161865 1134 C 1517.161865 1003.399048 1622.134033 899.650513 1751.511353 899.650513 C 1882.112305 899.650513 1987.084473 1003.399048 1987.084473 1134 C 1987.084473 1264.601074 1882.112305 1368.349365 1751.511353 1368.349365 Z M 1751.511353 1251.174805 C 1816.201538 1251.174805 1868.686035 1197.469727 1868.686035 1134 C 1868.686035 1070.530396 1816.201538 1016.825317 1751.511353 1016.825317 C 1688.0448 1016.825317 1635.560303 1070.530396 1635.560303 1134 C 1635.560303 1197.469727 1688.0448 1251.174805 1751.511353 1251.174805 Z"/>
</svg>
